<svg width="50" height="55" viewBox="0 0 50 55" fill="none" xmlns="http://www.w3.org/2000/svg">
<path d="M42.8171 13.1682L28.7069 5.03061C26.3242 3.65642 23.3634 3.65651 20.9806 5.03061L6.87047 13.1682C4.48303 14.5449 3 17.1124 3 19.8687V36.1312C3 38.8875 4.48303 41.455 6.87037 42.8317L20.9806 50.9693C23.3638 52.3438 26.3244 52.3433 28.7069 50.9693L42.817 42.8317C45.2045 41.455 46.6875 38.8875 46.6875 36.1312V19.8687C46.6875 17.1125 45.2045 14.545 42.8171 13.1682ZM42.9375 36.1312C42.9375 37.551 42.1736 38.8735 40.9438 39.5826L26.8336 47.7202C25.6061 48.4282 24.0813 48.4282 22.8538 47.7202L8.74359 39.5826C7.51388 38.8734 6.75 37.551 6.75 36.1312V19.8687C6.75 18.449 7.51388 17.1265 8.74369 16.4174L22.8538 8.27979C24.0814 7.57179 25.6067 7.57207 26.8337 8.27979L40.9439 16.4173C42.1736 17.1265 42.9375 18.4489 42.9375 19.8687V36.1312Z" fill="url(#paint0_linear_426_2488)"/>
<path d="M23.0619 26.5686L16.0981 20.6752C15.3077 20.0062 14.1244 20.1048 13.4555 20.8955C12.7866 21.6861 12.8852 22.8694 13.6757 23.5384L18.9481 28.0003L13.6757 32.4621C12.8852 33.1311 12.7867 34.3144 13.4555 35.105C14.126 35.8974 15.3095 35.9926 16.0981 35.3252L23.0619 29.4318C23.9478 28.682 23.9453 27.3163 23.0619 26.5686Z" fill="url(#paint1_linear_426_2488)"/>
<path d="M34.8006 32.0176H26.3635C25.328 32.0176 24.4885 32.8571 24.4885 33.8929C24.4885 34.9286 25.328 35.7681 26.3635 35.7681H34.8006C35.836 35.7681 36.6756 34.9286 36.6756 33.8929C36.6756 32.8571 35.8361 32.0176 34.8006 32.0176Z" fill="url(#paint2_linear_426_2488)"/>
<defs>
<linearGradient id="paint0_linear_426_2488" x1="24.8438" y1="4" x2="24.8438" y2="52" gradientUnits="userSpaceOnUse">
<stop stop-color="#3CC7FF"/>
<stop offset="1" stop-color="#4BDAFF"/>
</linearGradient>
<linearGradient id="paint1_linear_426_2488" x1="18.3686" y1="20.2314" x2="18.3686" y2="35.7689" gradientUnits="userSpaceOnUse">
<stop stop-color="#3CC7FF"/>
<stop offset="1" stop-color="#4BDAFF"/>
</linearGradient>
<linearGradient id="paint2_linear_426_2488" x1="30.582" y1="32.0176" x2="30.582" y2="35.7681" gradientUnits="userSpaceOnUse">
<stop stop-color="#3CC7FF"/>
<stop offset="1" stop-color="#4BDAFF"/>
</linearGradient>
</defs>
</svg>
